<?xml version="1.0" encoding="utf-8"?>
<!-- Generator: Adobe Illustrator 24.0.0, SVG Export Plug-In . SVG Version: 6.00 Build 0)  -->
<svg version="1.1" xmlns="http://www.w3.org/2000/svg" xmlns:xlink="http://www.w3.org/1999/xlink" x="0px" y="0px"
	 viewBox="0 0 400 500" style="enable-background:new 0 0 400 500;" xml:space="preserve">
<style type="text/css">
	.st0{clip-path:url(#SVGID_2_);}
	.st1{fill:#1D1D1B;}
	.st2{clip-path:url(#SVGID_4_);}
	.st3{fill:none;stroke:#1D1D1B;stroke-width:7;stroke-linecap:round;stroke-miterlimit:10;}
	.st4{display:none;}
	.st5{clip-path:url(#SVGID_6_);}
	.st6{fill:#FFFFFF;}
	.st7{clip-path:url(#SVGID_8_);}
	.st8{fill:none;stroke:#FFFFFF;stroke-width:7;stroke-linecap:round;stroke-miterlimit:10;}
</style>
<g id="NEGRO">
	<g>
		<defs>
			<rect id="SVGID_1_" width="400" height="500"/>
		</defs>
		<clipPath id="SVGID_2_">
			<use xlink:href="#SVGID_1_"  style="overflow:visible;"/>
		</clipPath>
		<g class="st0">
			<g>
				<path class="st1" d="M116.13,390.91c-0.17-1.42-0.68-7.24-6.67-7.24c-6.56,0-9.29,6.84-9.29,15.33c0,2.45,0,14.14,8.61,14.14
					c3.71,0,7.24-2.34,7.41-7.81h9.29c-0.17,2.45-0.4,6.27-3.71,9.69c-3.65,3.76-8.27,4.62-12.03,4.62
					c-14.2,0-18.81-10.49-18.81-20.69c0-13.05,7.3-21.72,18.87-21.72c9.01,0,15.33,5.47,15.33,13.68H116.13z"/>
				<path class="st1" d="M152.67,377.46l14.31,41.22h-8.89l-2.96-8.89h-16.3l-3.08,8.89h-8.44l14.88-41.22H152.67z M152.89,403.11
					l-5.7-17.56l-6.1,17.56H152.89z"/>
				<path class="st1" d="M171.59,377.46h14.42l8.72,29.99l9.41-29.99h14.02v41.22h-8.78v-35.34l-11.23,35.34h-7.3l-11-35.34v35.34
					h-8.27V377.46z"/>
				<path class="st1" d="M225.39,377.34h8.84v41.33h-8.84V377.34z"/>
				<path class="st1" d="M241.75,377.51h9.01v34.15h17.67v7.01h-26.68V377.51z"/>
				<path class="st1" d="M288.84,376.6c4.39,0,10.43,1.03,14.48,5.59c4.39,5.02,5.25,11.46,5.25,15.51c0,5.99-1.82,12.37-5.19,16.13
					c-4.56,5.13-11.23,5.87-14.65,5.87c-5.42,0-10.83-1.71-14.59-5.64c-4.5-4.79-5.07-11.63-5.07-15.39
					C269.06,387.72,274.01,376.6,288.84,376.6z M281.37,409.89c1.25,1.71,3.36,3.31,7.47,3.31c3.59,0,6.04-1.25,7.7-3.82
					c1.37-2.05,2.79-5.25,2.79-11.8c0-2-0.17-4.85-1.03-7.35c-1.71-5.07-5.19-7.3-9.41-7.3c-3.31,0-5.93,1.37-7.58,3.48
					c-2.34,2.85-3.02,7.3-3.02,11.97C278.29,402.31,278.92,406.7,281.37,409.89z"/>
			</g>
			<g>
				<path class="st1" d="M112.83,436.52v3.09H95.09v12.69h17v3.09h-17v13.52h18.52V472h-22v-35.48H112.83z"/>
				<path class="st1" d="M124.76,467.66c1.32,1.39,3.13,2.08,5.41,2.08c3.36,0,5.77-0.68,7.23-2.03c1.45-1.36,2.2-2.85,2.23-4.48
					c0-1.31-0.39-2.54-1.18-3.7c-0.79-1.16-1.86-2-3.23-2.52c-0.42-0.16-0.86-0.31-1.3-0.44c-0.44-0.13-0.87-0.26-1.3-0.39
					c-0.29-0.1-0.57-0.19-0.83-0.27c-0.26-0.08-0.54-0.17-0.83-0.27c-2.78-0.88-5.33-2.05-7.67-3.5c-2.34-1.45-3.5-3.94-3.5-7.47
					c0-2.32,1.03-4.44,3.09-6.37c2.06-1.93,4.62-2.89,7.69-2.89c3.3,0,6.08,0.73,8.33,2.21c2.25,1.47,3.46,3.56,3.63,6.27
					l-3.43-0.05c0-1.31-0.74-2.52-2.23-3.65c-1.49-1.13-3.58-1.69-6.3-1.69c-2.19,0.13-3.92,0.83-5.19,2.11
					c-1.27,1.27-1.91,2.68-1.91,4.21c0,1.05,0.32,2.07,0.96,3.06s1.66,1.85,3.06,2.57c0.62,0.29,1.25,0.57,1.89,0.83
					s1.28,0.51,1.94,0.73c0.42,0.16,0.84,0.32,1.25,0.47c0.41,0.15,0.81,0.29,1.2,0.42c2.55,0.88,4.78,1.94,6.69,3.16
					c1.91,1.22,2.87,3.34,2.87,6.35c0,4.05-1.36,6.79-4.09,8.23c-2.73,1.44-5.74,2.16-9.04,2.16c-3.07,0-5.6-0.82-7.6-2.45
					c-1.99-1.63-3.18-4.28-3.58-7.94l3.48-0.05C122.68,464.5,123.44,466.27,124.76,467.66z"/>
				<path class="st1" d="M170.11,440.27c-1.47-1.19-3.46-1.79-5.98-1.79c-4.05,0.2-6.99,1.81-8.82,4.83
					c-1.83,3.02-2.74,6.56-2.74,10.61c0,0.52,0.02,1.05,0.05,1.59c0.03,0.54,0.1,1.09,0.2,1.64c0.39,3.04,1.48,5.83,3.26,8.38
					s4.47,3.82,8.06,3.82c2.71,0,4.73-0.5,6.05-1.5c1.32-1,2.26-2.56,2.82-4.68l3.87-0.05c-0.59,2.71-1.85,4.93-3.77,6.66
					c-1.93,1.73-4.92,2.6-8.97,2.6c-5.39,0-9.31-1.92-11.76-5.76c-2.45-3.84-3.67-8.08-3.67-12.72c0-4.64,1.18-8.84,3.53-12.59
					c2.35-3.76,6.32-5.73,11.91-5.93c0.33,0,0.67,0.01,1.03,0.02c0.36,0.02,0.7,0.04,1.03,0.07c2.42,0.23,4.66,1.01,6.71,2.35
					c2.06,1.34,3.25,3.61,3.58,6.81l-3.87-0.05C172.41,442.91,171.58,441.46,170.11,440.27z"/>
				<path class="st1" d="M181.48,453.87c0-5.19,1.28-9.57,3.85-13.13s6.56-5.34,11.98-5.34c4.83,0,8.59,1.67,11.27,5.02
					s4.26,7.05,4.75,11.1c0.07,0.46,0.11,0.92,0.15,1.4c0.03,0.47,0.05,0.94,0.05,1.4c0,0.2,0,0.38,0,0.56s0,0.35,0,0.51
					c-0.2,4.28-1.56,8.18-4.09,11.71c-2.53,3.53-6.57,5.29-12.13,5.29c-5.78,0-9.82-1.77-12.1-5.32c-2.29-3.54-3.53-7.93-3.72-13.16
					V453.87z M184.96,453.87c0,4.28,1,7.93,2.99,10.95c1.99,3.02,5.11,4.53,9.36,4.53c4.25,0,7.37-1.4,9.36-4.19
					c1.99-2.79,2.99-6.41,2.99-10.85c0-4.25-1.04-7.95-3.14-11.1s-5.16-4.73-9.21-4.73c-3.43,0-6.2,1.27-8.31,3.8
					s-3.39,5.32-3.85,8.35c-0.07,0.39-0.12,0.79-0.15,1.2c-0.03,0.41-0.05,0.81-0.05,1.2c0,0.13,0,0.27,0,0.42c0,0.15,0,0.3,0,0.46
					V453.87z"/>
				<path class="st1" d="M233.17,436.52c3.5,0.03,6.11,0.85,7.84,2.45s2.6,3.76,2.6,6.47c0,2.09-0.6,3.81-1.79,5.17
					c-1.19,1.36-2.65,2.33-4.39,2.92c0.26,0.07,0.53,0.13,0.81,0.2s0.56,0.15,0.86,0.24c1.5,0.52,2.89,1.43,4.17,2.72
					c1.27,1.29,1.91,3.32,1.91,6.1c0,0.26-0.01,0.53-0.02,0.81c-0.02,0.28-0.06,0.56-0.12,0.86c-0.26,1.9-1.16,3.63-2.69,5.19
					c-1.54,1.57-4.07,2.35-7.59,2.35h-13.92v-35.48H233.17z M224.3,451.96h6.96c3.1,0.03,5.29-0.51,6.57-1.62
					c1.27-1.11,1.91-2.61,1.91-4.51c0-1.93-0.56-3.44-1.67-4.53c-1.11-1.09-3.12-1.64-6.03-1.64l-7.74-0.05V451.96z M224.3,468.91
					h8.87c2.91,0.03,4.99-0.53,6.25-1.69c1.26-1.16,1.89-2.9,1.89-5.22c0-2.71-0.98-4.54-2.94-5.49s-4.59-1.42-7.89-1.42l-6.17-0.05
					V468.91z"/>
				<path class="st1" d="M266.74,436.52L281,472h-3.82l-3.87-9.65h-17.35l-3.48,9.65h-3.87l14.26-35.48H266.74z M264.83,439.61
					l-7.74,19.65h15.04L264.83,439.61z"/>
				<path class="st1" d="M299.52,436.86c3.3,0.03,5.73,0.94,7.3,2.72c1.57,1.78,2.35,3.73,2.35,5.86c0,2.48-0.48,4.3-1.45,5.46
					c-0.96,1.16-2.41,2.03-4.34,2.62c0.85,0.13,1.5,0.33,1.96,0.59c0.46,0.26,0.82,0.52,1.08,0.78c0.1,0.13,0.19,0.25,0.27,0.34
					c0.08,0.1,0.16,0.2,0.22,0.29c0.07,0.03,0.12,0.08,0.17,0.15s0.09,0.11,0.12,0.15c0.59,0.69,1,1.8,1.23,3.33
					c0.23,1.54,0.39,3.17,0.49,4.9c0,0.07,0.01,0.13,0.02,0.2c0.02,0.07,0.02,0.13,0.02,0.2c0.1,1.57,0.23,3.05,0.39,4.43
					c0.16,1.39,0.47,2.43,0.93,3.11h-3.43c-0.49-0.59-0.82-1.47-0.98-2.65s-0.29-2.45-0.39-3.82c0-0.26-0.01-0.52-0.02-0.78
					c-0.02-0.26-0.04-0.52-0.07-0.78c-0.16-2.22-0.56-4.25-1.2-6.1c-0.64-1.84-2.07-2.77-4.29-2.77l-10.44-0.05V472h-3.48v-35.13
					H299.52z M289.47,451.96h8.48c2.32,0.03,4.19-0.46,5.61-1.47c1.42-1.01,2.13-2.56,2.13-4.66c0-2.12-0.62-3.68-1.86-4.68
					c-1.24-1-3.32-1.49-6.22-1.49l-8.13-0.05V451.96z"/>
			</g>
			<g>
				<g>
					<defs>
						<rect id="SVGID_3_" x="90.5" y="19" width="219" height="325"/>
					</defs>
					<clipPath id="SVGID_4_">
						<use xlink:href="#SVGID_3_"  style="overflow:visible;"/>
					</clipPath>
					<g class="st2">
						<path class="st3" d="M178,9c0,0,172,40,168,120"/>
						<path class="st3" d="M303.81,140.37C329.08,155.8,345.9,172.76,348,191"/>
						<path class="st3" d="M-11,43c0,0,120.81,20.31,221.53,54.92"/>
						<path class="st3" d="M140.64,166.47c-8.96-0.88-110.82-9.81-155.65,39.91C-55.97,251.81-48.95,345.8,10.5,428.5"/>
						<path class="st3" d="M342,214c0,0-24.68-9.61-61.27-20.37"/>
						<path class="st3" d="M360,254c0,0-338.5-66.5,26.5,229.5"/>
						<path class="st3" d="M145.05,466.6c0,0,101.04-361.16-232.8-24.96"/>
					</g>
				</g>
				<g>
					<path class="st1" d="M282.43,100.76l-0.6-1.58l-1.58-0.6c-5.1-1.93-10.46-2.9-15.93-2.9c-12.03,0-23.33,4.68-31.84,13.19
						l-12.06,12.06l-26.95,1.31l-22.55,22.55l19.45,6.19l-7.19,7.19l4.2,4.2l-9.31,14.26l2.81,2.81l-0.25,0.25
						c-2.87,2.88-7.11,3.89-10.97,2.61l-8.88-2.94l-17.58,53.11l5.06,5.04l53.04-17.8l-2.98-8.87c-1.29-3.85-0.3-8.1,2.57-10.98
						l0.21-0.21l3.28,3.28l14.26-9.31l4.2,4.2l7.19-7.19l6.19,19.45l22.55-22.55l1.31-26.95l12.06-12.06
						C284.63,136.04,288.67,117.29,282.43,100.76z M184.93,141.37l11.8-11.8l15.8-0.77L196.33,145L184.93,141.37z M195.83,194.82
						c-4.81,4.83-6.45,11.84-4.28,18.3l0.7,2.09l-32.71,10.98l18.99-19.06l-5.06-5.04l-18.99,19.06l10.84-32.75l2.1,0.7
						c6.47,2.14,13.47,0.47,18.28-4.36l0.24-0.24l10.11,10.11L195.83,194.82z M205.38,193.33l-17.7-17.7l5.12-7.85l20.43,20.43
						L205.38,193.33z M251.43,184.28l-11.8,11.8l-3.63-11.4l16.19-16.19L251.43,184.28z M266.84,143.23l-44,44l-29.06-29.06l44-44
						c7.09-7.09,16.51-10.99,26.53-10.99c3.99,0,7.91,0.62,11.67,1.85C280.34,118.39,276.84,133.22,266.84,143.23z"/>
					<path class="st1" d="M256.41,113.34c-3.01,0-5.83,1.17-7.95,3.29c-4.39,4.39-4.39,11.52,0,15.91c2.12,2.12,4.95,3.29,7.95,3.29
						c3,0,5.83-1.17,7.95-3.29c4.39-4.39,4.39-11.52,0-15.91C262.24,114.51,259.42,113.34,256.41,113.34z M259.06,127.24
						c-0.71,0.71-1.65,1.1-2.65,1.1c-1,0-1.94-0.39-2.65-1.1c-1.46-1.46-1.46-3.84,0-5.3c0.71-0.71,1.65-1.1,2.65-1.1
						c1,0,1.94,0.39,2.65,1.1C260.53,123.4,260.53,125.78,259.06,127.24z"/>
					<path class="st1" d="M125.83,239.53c1.46-1.46,1.46-3.84,0-5.3v0c-1.46-1.46-3.84-1.46-5.3,0l-3.2,3.2
						c-1.46,1.46-1.46,3.84,0,5.3c1.46,1.46,3.84,1.46,5.3,0L125.83,239.53z"/>
					<path class="st1" d="M136.11,244.51L136.11,244.51c-1.46-1.46-3.84-1.46-5.3,0l-7.23,7.23c-1.46,1.46-1.46,3.84,0,5.3l0,0
						c1.46,1.46,3.84,1.46,5.3,0l7.23-7.23C137.58,248.35,137.58,245.98,136.11,244.51z"/>
					<path class="st1" d="M146.77,255.17c-1.46-1.46-3.84-1.46-5.3,0l-3.2,3.2c-1.46,1.46-1.46,3.84,0,5.3v0
						c1.46,1.46,3.84,1.46,5.3,0l3.2-3.2C148.24,259.01,148.24,256.64,146.77,255.17L146.77,255.17z"/>
				</g>
			</g>
		</g>
	</g>
</g>
<g id="BLANCO">
</g>
</svg>
